<?xml version="1.0" standalone="no"?>
<!DOCTYPE svg PUBLIC "-//W3C//DTD SVG 20010904//EN"
 "http://www.w3.org/TR/2001/REC-SVG-20010904/DTD/svg10.dtd">
<svg version="1.0" xmlns="http://www.w3.org/2000/svg"
 width="512.000000pt" height="512.000000pt" viewBox="0 0 512.000000 512.000000"
 preserveAspectRatio="xMidYMid meet">
<metadata>
Created by potrace 1.11, written by Peter Selinger 2001-2013
</metadata>
<g transform="translate(0.000000,512.000000) scale(0.100000,-0.100000)"
fill="#000000" stroke="none">
<path d="M250 5106 c0 -7 -13 -30 -30 -51 -16 -20 -32 -45 -35 -54 -7 -23 -60
-61 -91 -67 -13 -2 -40 2 -59 10 l-35 15 0 -440 c0 -262 4 -446 10 -457 15
-27 56 -124 66 -157 12 -40 59 -48 73 -13 5 13 27 42 48 66 30 32 47 42 71 42
17 0 32 -6 35 -12 3 -10 9 -10 26 0 32 19 41 15 57 -23 8 -20 25 -40 39 -45
16 -6 27 -22 35 -49 6 -22 15 -43 20 -46 18 -11 10 -57 -15 -87 -14 -16 -25
-37 -25 -47 0 -9 -13 -31 -29 -49 -27 -29 -33 -31 -58 -21 -15 5 -30 14 -33
20 -4 5 -32 10 -63 10 -48 1 -57 4 -57 20 0 10 -14 29 -31 41 -21 16 -29 28
-25 43 4 17 0 20 -24 21 -21 1 -31 -4 -35 -17 -4 -10 -24 -42 -46 -69 l-40
-51 5 -147 c3 -81 5 -163 5 -182 -8 -844 -8 -1183 1 -1170 5 8 10 24 10 36 0
11 6 29 14 39 12 17 17 18 39 6 14 -8 32 -11 40 -8 8 3 23 -3 33 -14 9 -10 25
-19 35 -19 28 0 69 -41 86 -85 19 -48 28 -129 17 -153 -9 -21 -11 -28 -13 -46
0 -8 -14 -28 -30 -45 -26 -28 -35 -31 -89 -31 -81 0 -110 12 -128 55 -8 19
-16 35 -19 35 -3 0 -5 -175 -5 -388 l0 -388 31 -11 c19 -8 34 -23 42 -42 8
-22 18 -31 34 -31 13 0 23 5 23 10 0 6 9 10 20 10 10 0 25 7 32 15 34 41 54
55 79 55 41 0 73 -50 99 -153 19 -75 21 -95 11 -127 -22 -73 -90 -93 -137 -41
-14 16 -38 31 -52 34 -15 3 -38 9 -52 12 -20 5 -27 1 -35 -17 -9 -19 -17 -23
-53 -21 l-42 2 0 -415 0 -414 885 0 885 0 0 25 c0 22 -3 24 -24 15 -26 -10
-54 10 -41 30 9 15 102 13 108 -2 4 -11 7 -11 18 0 16 14 59 16 59 2 0 -5 17
-10 38 -10 36 0 72 -25 72 -50 0 -5 12 -2 28 6 34 17 60 18 93 0 32 -16 280
-21 309 -6 14 7 20 7 20 0 0 -7 421 -10 1335 -10 l1335 0 0 229 0 229 -52 5
c-222 24 -263 26 -331 15 -40 -6 -105 -13 -146 -15 -59 -4 -74 -8 -78 -22 -3
-13 -12 -17 -27 -14 -34 7 -124 -39 -180 -92 -27 -25 -54 -45 -60 -45 -5 0 -3
-7 6 -17 15 -14 15 -19 2 -45 -8 -15 -21 -28 -28 -28 -16 0 -63 68 -72 105
-10 39 -68 132 -97 155 -19 15 -27 16 -36 7 -10 -9 -15 -8 -25 6 -7 9 -17 17
-22 17 -13 0 -59 -42 -72 -66 -6 -11 -26 -31 -45 -44 -19 -13 -44 -38 -57 -57
-22 -33 -50 -44 -50 -21 0 9 -3 9 -12 0 -20 -20 -35 -14 -47 18 -6 19 -17 30
-29 30 -11 0 -22 9 -25 20 -3 11 -14 20 -25 20 -11 0 -25 7 -32 15 -16 19 -96
55 -122 55 -11 0 -29 5 -40 11 -51 28 -198 50 -363 56 -221 7 -330 -7 -690
-92 -80 -19 -173 -39 -259 -57 -32 -7 -60 -18 -63 -25 -3 -8 -24 -13 -57 -13
-31 0 -67 -8 -88 -19 -20 -10 -57 -21 -83 -24 -26 -4 -52 -10 -58 -14 -6 -4
-27 -8 -46 -10 -41 -5 -37 -2 -45 -30 -6 -17 -1 -25 21 -37 28 -16 27 -16 -32
-13 l-60 2 1 58 c1 61 19 107 40 107 7 0 16 15 19 32 15 92 25 148 36 200 11
49 10 58 -4 73 -9 8 -31 46 -49 83 -26 53 -33 83 -36 144 -4 67 -1 81 17 104
12 15 21 32 21 39 0 21 88 95 113 95 32 0 77 46 77 79 0 19 3 22 9 12 5 -8 5
-27 0 -44 -5 -17 -8 -52 -7 -78 2 -44 4 -48 33 -53 16 -3 48 0 70 6 49 13 98
14 190 4 39 -5 67 -5 63 -1 -4 4 -20 8 -34 9 -15 1 -29 6 -31 12 -4 13 79 27
116 19 15 -3 32 2 43 11 10 10 48 20 95 25 43 4 102 13 132 18 30 6 131 12
226 12 244 2 260 22 28 34 -131 7 -175 13 -169 24 7 11 136 14 136 4 0 -4 43
-6 95 -5 68 3 108 -1 142 -12 25 -9 63 -16 84 -16 20 0 42 -7 49 -15 7 -8 23
-15 37 -15 13 0 34 -7 47 -15 17 -11 30 -13 47 -6 24 9 24 9 -6 16 -16 4 -38
14 -47 23 -26 22 -142 61 -248 83 -52 11 -117 26 -145 34 -27 8 -113 18 -190
22 -136 7 -137 8 -61 13 119 8 386 -19 422 -42 6 -4 30 -10 53 -14 23 -4 44
-11 47 -15 3 -5 15 -9 26 -9 12 0 41 -9 65 -20 24 -11 63 -29 88 -41 25 -11
45 -25 45 -30 0 -5 8 -9 18 -10 9 0 31 -9 47 -20 17 -10 36 -22 43 -25 8 -4
28 -20 45 -36 45 -42 76 -62 84 -54 4 4 -6 18 -22 32 -17 14 -46 40 -65 58
-19 18 -61 49 -93 70 -31 21 -60 42 -63 47 -3 5 -13 9 -24 9 -10 0 -20 7 -24
15 -3 8 -16 15 -30 15 -13 0 -26 7 -30 15 -3 9 -18 15 -34 15 -16 0 -35 7 -42
15 -7 8 -25 15 -40 15 -15 0 -33 7 -40 15 -8 9 -29 15 -55 15 -24 0 -45 5 -47
11 -2 6 -41 13 -91 16 -93 6 -117 16 -64 27 25 5 29 9 17 16 -20 13 -97 13
-105 0 -3 -6 -46 -9 -98 -9 -76 1 -85 3 -52 10 22 4 61 8 88 8 33 1 47 5 47
15 0 19 -52 25 -229 25 -85 1 -156 3 -159 6 -3 3 83 5 191 5 108 0 198 -4 201
-9 3 -5 38 -9 78 -10 82 -1 138 -10 138 -20 0 -4 16 -7 35 -8 20 -1 41 -5 48
-11 7 -5 41 -19 77 -30 80 -26 157 -59 165 -72 8 -13 55 -13 55 0 0 6 -11 15
-25 20 -14 5 -25 16 -25 24 0 7 -6 13 -12 12 -15 -1 -24 17 -10 22 5 1 17 -4
25 -13 9 -8 22 -15 29 -15 7 0 24 -7 36 -16 25 -17 27 -15 10 21 -6 14 -19 25
-28 25 -24 0 -81 30 -87 46 -3 8 -14 14 -26 14 -11 0 -28 6 -36 14 -9 8 -38
21 -64 30 -26 9 -58 22 -70 30 -12 8 -39 17 -59 20 -21 4 -38 11 -38 16 0 6
-11 10 -24 10 -16 0 -27 7 -31 20 -5 15 -15 20 -45 20 -23 0 -46 7 -56 18 -17
16 -16 17 19 20 20 2 46 -3 59 -12 13 -8 37 -16 53 -18 17 -2 39 -11 49 -20
11 -10 30 -18 43 -18 13 0 33 -9 45 -20 12 -11 32 -20 45 -20 13 0 23 -4 23
-10 0 -5 11 -10 23 -10 13 0 32 -9 42 -20 10 -11 26 -20 37 -20 10 0 18 -7 18
-16 0 -9 5 -14 12 -12 18 6 22 28 5 28 -7 0 -22 9 -31 19 -10 11 -39 28 -65
39 -26 12 -55 30 -65 41 -11 12 -27 21 -36 21 -10 0 -23 7 -30 15 -7 8 -25 15
-40 15 -16 0 -30 7 -34 15 -3 8 -18 15 -34 15 -27 0 -52 15 -52 32 0 12 88 10
95 -2 3 -5 16 -10 29 -10 12 0 31 -7 42 -15 10 -8 28 -15 38 -15 11 0 27 -6
35 -14 27 -23 67 -28 82 -9 8 9 9 14 3 10 -7 -4 -17 -1 -23 7 -7 8 -22 17 -35
20 -25 6 -44 36 -23 36 33 -1 57 -14 57 -32 0 -17 5 -20 30 -14 22 4 30 2 30
-9 0 -8 6 -15 13 -15 7 0 20 -9 30 -20 18 -22 37 -19 37 6 0 8 -10 14 -26 14
-14 0 -22 4 -19 10 3 5 -3 15 -15 22 -11 7 -20 18 -20 25 0 7 -11 13 -25 13
-14 0 -25 4 -25 10 0 5 -11 12 -25 16 -14 3 -30 15 -36 26 -7 13 -16 17 -30
13 -13 -4 -19 -2 -19 9 0 8 -10 18 -22 22 -13 4 -25 9 -28 13 -3 3 -30 18 -60
34 -42 21 -49 27 -29 27 14 0 49 -13 79 -29 30 -16 83 -43 118 -60 34 -17 62
-36 62 -41 0 -6 9 -10 20 -10 11 0 20 -5 20 -10 0 -6 11 -15 25 -20 14 -5 25
-14 25 -20 0 -13 27 -13 35 1 4 6 -2 13 -14 16 -12 3 -21 13 -21 24 0 12 -7
19 -18 19 -10 0 -38 18 -63 40 -24 22 -52 42 -61 46 -22 7 -24 24 -4 24 19 0
94 -50 125 -84 14 -14 31 -26 38 -26 8 0 16 -7 19 -15 4 -8 13 -15 20 -15 8 0
17 -6 20 -14 3 -8 12 -12 20 -9 8 3 14 -1 14 -11 0 -9 5 -16 11 -16 20 0 56
-35 53 -53 -1 -9 2 -17 7 -17 13 0 68 -62 69 -77 0 -7 7 -13 15 -13 9 0 19 -8
22 -17 4 -9 14 -24 22 -32 9 -9 23 -28 32 -41 9 -14 20 -22 24 -18 4 4 -6 23
-24 43 -17 20 -31 42 -31 50 0 8 -4 15 -10 15 -5 0 -10 6 -10 14 0 8 -7 17
-15 20 -9 3 -21 18 -28 33 -13 31 -36 59 -119 147 -32 33 -58 64 -58 68 0 4
-3 8 -8 8 -12 0 -112 97 -112 109 0 18 8 13 56 -31 127 -119 264 -261 264
-274 0 -9 81 -119 133 -180 20 -25 37 -51 37 -57 1 -19 38 -62 47 -54 4 5 0
22 -10 38 -19 34 -22 49 -8 49 5 0 12 -14 16 -30 4 -17 10 -30 14 -30 4 0 13
-16 21 -35 8 -19 17 -35 22 -35 4 0 8 -7 8 -15 0 -8 5 -15 10 -15 6 0 10 -5
10 -11 0 -6 13 -39 29 -73 40 -82 111 -279 123 -341 6 -27 15 -54 19 -59 12
-14 11 40 -1 62 -5 9 -14 42 -19 72 -16 87 -22 114 -31 135 -13 30 -40 114
-40 125 0 6 -9 29 -19 53 -11 23 -22 53 -26 67 -4 14 -13 39 -20 55 -7 17 -22
53 -34 80 -12 28 -30 67 -41 87 -11 20 -20 43 -20 51 0 7 -16 46 -36 86 -20
40 -33 75 -30 78 2 3 12 -11 20 -31 8 -20 20 -36 25 -36 6 0 11 -6 11 -14 0
-8 27 -69 60 -135 33 -66 60 -126 60 -132 0 -6 6 -25 14 -42 14 -32 33 -88 55
-162 7 -22 16 -49 21 -60 4 -11 11 -28 14 -38 3 -10 9 -16 14 -13 4 2 6 -11 4
-30 -3 -21 0 -34 7 -34 6 0 11 -13 11 -29 0 -16 5 -31 11 -33 5 -2 12 -15 14
-28 11 -89 39 -236 45 -243 5 -5 11 6 15 23 4 18 31 73 61 122 29 49 56 98 59
108 4 11 10 20 15 20 4 0 10 8 14 18 19 53 133 175 218 234 62 42 95 59 173
92 22 9 48 21 57 26 10 6 36 10 57 10 22 0 42 4 45 8 6 11 234 16 259 6 40
-15 -3 -24 -117 -24 -92 0 -127 -4 -142 -15 -10 -8 -32 -15 -48 -15 -40 0
-144 -43 -223 -91 -77 -47 -81 -50 -141 -111 -66 -67 -79 -83 -98 -120 -9 -18
-20 -35 -24 -38 -15 -10 -71 -122 -67 -134 3 -6 8 -2 12 9 13 31 107 152 177
228 35 37 58 54 98 73 8 4 17 10 20 14 8 11 95 50 111 50 8 0 19 4 25 8 35 32
374 54 392 26 4 -7 40 -13 80 -16 l72 -4 0 228 c0 125 -3 228 -7 228 -5 0 -22
-9 -39 -19 -46 -28 -105 -35 -148 -17 -20 8 -36 21 -36 29 0 23 80 55 158 63
63 6 72 9 72 27 0 17 -5 19 -32 13 -18 -4 -34 -11 -36 -16 -5 -14 -119 -13
-157 2 -28 9 -41 8 -91 -13 -59 -24 -167 -90 -179 -109 -3 -5 -15 -10 -26 -10
-20 0 -20 1 -3 30 10 16 33 46 51 67 18 20 33 40 33 43 0 4 13 23 30 41 16 19
30 37 30 40 0 10 112 85 150 102 19 8 63 37 97 65 36 29 76 52 97 56 l36 7 0
633 0 634 -150 1 c-146 1 -151 2 -207 31 -50 26 -62 39 -90 93 -39 74 -49 132
-35 208 13 70 43 116 107 163 l50 37 80 -6 c44 -3 100 -10 125 -15 25 -5 62
-12 83 -15 l37 -6 0 649 c0 497 -3 654 -12 675 l-13 27 -122 0 c-110 0 -123
-2 -123 -17 -1 -10 -9 -36 -20 -58 -11 -22 -19 -44 -20 -48 0 -17 -46 -46 -72
-47 -34 0 -58 24 -58 59 0 15 -7 36 -15 47 -8 10 -15 29 -15 42 0 21 -4 22
-80 22 l-80 0 10 -26 c6 -14 10 -57 10 -96 0 -109 -39 -155 -119 -142 -22 4
-59 0 -91 -10 -35 -10 -92 -16 -165 -16 -111 0 -112 0 -155 33 -91 68 -107 71
-143 23 -75 -98 -218 -76 -281 43 -21 41 -26 64 -26 121 l0 70 -55 0 c-30 0
-55 -2 -55 -5 0 -3 16 -37 35 -75 37 -73 42 -112 24 -170 -24 -78 -41 -178
-38 -225 7 -110 4 -236 -7 -243 -6 -4 -16 -17 -23 -29 -14 -28 -76 -46 -130
-37 -32 5 -49 1 -87 -20 -54 -30 -115 -34 -171 -11 -55 23 -96 19 -148 -16
-42 -28 -45 -33 -31 -48 21 -24 26 -54 30 -176 2 -108 -5 -145 -31 -145 -6 0
-13 -4 -15 -8 -1 -5 -41 -12 -88 -15 -78 -6 -87 -5 -113 16 -53 42 -72 229
-31 311 21 43 4 88 -39 104 -19 7 -83 12 -143 12 -133 0 -166 14 -185 82 -17
58 -14 186 4 207 8 9 17 25 18 35 2 11 23 29 46 41 44 24 176 37 334 35 42 -1
105 4 140 10 62 12 127 17 274 22 39 2 76 7 83 12 9 5 24 3 39 -5 22 -12 27
-11 39 6 18 24 18 36 0 61 -12 15 -17 17 -27 7 -29 -29 -85 1 -59 32 9 10 9
23 3 42 -19 53 13 127 43 102 8 -6 20 -9 28 -6 14 5 66 79 66 92 0 3 -298 5
-661 5 l-662 0 6 -57 c7 -70 -7 -139 -45 -220 -30 -64 -44 -75 -89 -70 -25 3
-68 45 -96 92 -36 62 -113 225 -113 239 0 14 -16 16 -133 16 l-134 0 -11 -38
c-10 -34 -19 -42 -79 -70 -38 -17 -87 -36 -110 -42 -23 -6 -46 -18 -51 -27 -7
-11 -23 -16 -58 -15 -87 2 -139 8 -159 19 -37 20 -112 53 -120 53 -5 0 -18 9
-30 20 -20 19 -24 19 -72 5 -27 -8 -63 -27 -79 -41 -15 -15 -40 -30 -54 -34
-33 -9 -110 19 -122 45 -5 12 -19 25 -31 30 -15 7 -25 24 -31 53 -9 39 -12 42
-43 42 -21 0 -33 -5 -33 -14z m1286 -724 c25 -21 61 -109 70 -174 8 -60 -10
-159 -40 -218 -19 -37 -28 -46 -54 -48 -40 -4 -52 -38 -27 -75 10 -16 17 -52
19 -104 2 -43 8 -89 14 -103 8 -22 108 -148 149 -188 7 -7 13 -21 13 -31 0 -9
5 -22 11 -28 11 -11 10 -26 -10 -177 -9 -66 -15 -84 -40 -110 -16 -17 -38 -40
-48 -51 -11 -11 -39 -37 -62 -57 -40 -36 -46 -58 -15 -58 18 0 18 -15 0 -32
-11 -11 -10 -22 6 -71 19 -53 19 -73 3 -137 -24 -98 -92 -132 -153 -76 -13 11
-24 19 -25 17 -5 -10 -47 12 -47 24 0 17 -35 29 -52 19 -21 -13 -142 -5 -153
10 -7 10 -41 16 -103 20 -50 2 -100 9 -109 15 -14 8 -22 4 -39 -17 -22 -27
-26 -28 -144 -33 -19 -1 -40 -6 -47 -12 -9 -6 -21 1 -41 23 -26 28 -30 29 -42
15 -8 -10 -16 -12 -19 -6 -7 11 -105 68 -133 77 -19 7 -25 34 -8 34 12 0 43
30 65 64 30 45 -7 146 -52 146 -7 0 -13 4 -13 10 0 16 -72 44 -117 45 -23 0
-52 6 -65 12 -13 6 -31 14 -40 17 -13 4 -18 16 -18 43 0 21 -4 55 -9 76 -6 25
-5 51 4 82 8 24 19 79 24 120 15 105 22 115 74 112 23 -2 57 1 76 6 22 5 42 5
56 -1 15 -7 37 -7 66 -1 24 6 107 11 185 11 111 0 151 -4 192 -18 l52 -19 38
38 c21 20 48 37 60 37 26 0 46 32 30 48 -15 15 27 62 54 62 10 0 18 4 18 10 0
12 -48 60 -61 60 -26 0 32 38 76 50 56 15 118 45 135 65 6 7 37 21 70 31 33
11 60 25 60 32 0 6 7 12 15 12 19 0 19 27 -1 103 -17 65 -14 110 12 185 21 64
41 99 66 116 29 20 48 20 74 -2z m2914 -87 c0 -8 -11 -43 -24 -77 -13 -35 -27
-83 -31 -108 -3 -25 -14 -70 -24 -100 -24 -73 -38 -121 -56 -205 -27 -117 -26
-115 -11 -115 8 0 17 -7 20 -16 6 -15 9 -15 29 5 13 11 26 21 30 21 13 0 7
-99 -13 -200 -11 -56 -20 -120 -20 -143 0 -23 -5 -49 -10 -57 -8 -13 -10 -13
-10 2 0 25 -33 40 -64 28 -14 -5 -32 -7 -40 -4 -21 8 -44 -69 -72 -241 -23
-141 -28 -233 -14 -251 9 -10 16 -12 24 -4 13 13 53 13 61 0 11 -18 43 34 48
76 2 21 2 -8 0 -66 -3 -57 -9 -115 -14 -128 -5 -13 -9 -42 -9 -65 0 -23 -7
-62 -15 -87 -14 -40 -15 -41 -10 -10 6 41 -8 100 -19 82 -9 -14 -46 -16 -46
-2 0 12 -22 9 -32 -5 -5 -6 -11 -5 -17 4 -11 17 -24 -24 -41 -124 -6 -38 -16
-95 -21 -125 -5 -30 -10 -107 -11 -170 l-3 -115 58 -9 c47 -8 60 -7 67 4 18
28 23 -2 12 -63 -6 -34 -14 -100 -17 -147 -3 -47 -10 -114 -16 -150 -26 -177
-31 -200 -42 -193 -15 9 -69 4 -81 -8 -6 -5 -15 -75 -21 -156 l-12 -148 -3
190 c-1 105 -6 201 -10 215 -4 14 -8 19 -9 13 -2 -29 -20 -10 -28 30 -10 47
-36 58 -41 17 -2 -14 -8 -30 -14 -37 -5 -7 -9 -22 -8 -35 1 -13 2 -32 1 -43
-2 -39 -27 8 -45 85 -20 82 -76 266 -107 345 -10 28 -19 58 -19 68 0 9 -11 40
-24 67 -14 28 -28 64 -31 81 -4 17 -20 59 -36 94 -16 36 -29 69 -29 74 0 15
-68 164 -107 236 -19 33 -73 153 -73 160 0 4 -8 19 -19 33 -10 15 -22 41 -25
59 -4 18 -15 42 -25 55 -10 13 -28 46 -41 73 -13 28 -36 68 -50 90 -14 22 -31
49 -38 60 -7 11 -22 40 -34 65 -11 25 -27 49 -34 53 -8 4 -14 13 -14 20 0 7
-27 51 -59 99 -33 48 -63 97 -67 110 -3 13 -14 34 -24 48 -10 14 -21 35 -24
48 -4 12 -11 22 -16 22 -5 0 -2 -12 6 -27 7 -16 14 -34 14 -41 0 -12 22 -66
65 -157 13 -27 27 -61 31 -75 4 -14 17 -41 29 -60 12 -19 36 -66 54 -105 35
-77 47 -100 78 -160 12 -22 35 -71 52 -110 18 -38 37 -79 43 -90 12 -21 71
-130 95 -178 8 -15 12 -33 10 -40 -3 -7 -6 -5 -6 6 -1 9 -5 17 -9 17 -5 0 -22
26 -38 58 -16 31 -32 62 -37 67 -16 21 -76 126 -83 147 -6 19 -72 129 -93 154
-5 6 -16 25 -25 41 -8 17 -22 37 -29 45 -18 17 -62 83 -132 196 -11 17 -23 32
-27 32 -5 0 -8 6 -8 13 0 8 -9 22 -20 32 -12 10 -20 13 -20 6 0 -12 21 -52 31
-61 4 -3 15 -23 26 -45 11 -22 33 -62 49 -90 15 -27 41 -75 56 -105 16 -30 37
-64 47 -75 10 -11 25 -33 33 -50 29 -57 70 -130 87 -155 10 -14 26 -41 36 -60
40 -80 49 -96 62 -109 8 -7 27 -39 44 -70 16 -31 35 -65 41 -76 44 -71 55 -92
61 -109 6 -16 5 -17 -8 -6 -8 7 -15 19 -15 26 0 8 -3 14 -7 14 -5 0 -17 20
-28 45 -11 25 -23 45 -27 45 -5 0 -8 6 -8 14 0 8 -15 34 -34 59 -19 24 -37 53
-40 64 -4 11 -15 28 -26 38 -11 10 -20 23 -20 30 0 7 -15 32 -32 56 -35 47
-98 148 -98 156 0 3 -16 24 -36 47 -48 56 -54 64 -54 72 0 4 -18 29 -40 55
-22 26 -40 51 -40 54 0 4 -10 15 -22 26 -17 13 -19 18 -8 19 16 0 24 -8 68
-65 l24 -30 -8 30 c-4 16 -18 41 -31 55 -12 13 -23 28 -23 32 0 16 -95 129
-99 117 -2 -6 4 -16 13 -21 9 -5 16 -17 16 -27 0 -10 7 -24 15 -31 17 -14 20
-50 5 -50 -5 0 -10 6 -10 13 0 8 -8 23 -17 35 -10 11 -29 34 -43 51 -14 17
-28 31 -32 31 -8 0 98 -198 119 -221 15 -18 83 -128 83 -136 0 -2 11 -19 24
-36 13 -18 27 -43 31 -57 4 -14 22 -43 39 -65 17 -22 37 -51 44 -65 7 -14 32
-51 55 -82 42 -57 62 -89 103 -159 12 -20 31 -47 43 -60 11 -12 21 -28 21 -33
0 -6 -14 3 -30 21 -17 18 -30 36 -30 41 0 5 -12 26 -27 46 -16 20 -44 59 -63
87 -19 28 -40 56 -46 63 -6 6 -22 29 -36 51 -14 22 -34 49 -44 60 -11 11 -35
45 -55 75 -20 30 -60 79 -88 109 -50 54 -60 71 -41 71 6 0 10 -7 10 -15 0 -8
4 -15 9 -15 5 0 17 -7 25 -16 26 -26 20 9 -7 43 -13 15 -41 54 -62 86 -21 32
-48 65 -61 74 -13 8 -24 22 -24 29 0 8 -7 14 -15 14 -25 0 -17 -31 20 -71 33
-37 44 -60 28 -58 -8 0 -16 10 -84 92 -33 39 -53 49 -42 20 3 -10 35 -59 70
-110 34 -50 63 -96 63 -102 0 -6 5 -11 10 -11 6 0 10 -7 10 -15 0 -8 5 -15 10
-15 6 0 16 -12 23 -27 6 -16 15 -31 20 -34 4 -3 22 -26 40 -51 87 -125 161
-224 171 -230 6 -4 8 -10 4 -13 -7 -7 -40 27 -113 120 -31 39 -69 86 -86 105
-16 19 -29 38 -29 43 0 4 -11 18 -25 31 -14 13 -28 38 -31 55 -6 28 -10 32
-30 27 -14 -4 -24 -2 -24 4 0 6 5 8 10 5 17 -11 11 21 -10 48 -11 14 -20 27
-20 29 0 7 -85 98 -91 98 -3 0 -5 -15 -5 -34 0 -19 5 -33 11 -32 5 2 7 1 3 -1
-16 -9 -6 -31 42 -91 28 -34 50 -65 50 -68 0 -4 11 -17 24 -29 13 -12 31 -35
39 -51 9 -16 41 -58 72 -94 30 -36 60 -70 65 -76 5 -7 13 -14 18 -15 5 -2 13
-15 17 -29 5 -18 -11 -5 -56 44 -35 38 -88 95 -117 125 -28 31 -62 77 -74 104
-12 26 -25 47 -30 47 -4 0 -8 7 -8 15 0 8 -7 15 -15 15 -8 0 -15 5 -15 10 0 6
-8 19 -17 29 -10 10 -29 31 -42 45 -31 34 -37 33 -37 -9 0 -44 -9 -53 -32 -32
-10 10 -21 15 -24 11 -8 -7 14 -64 24 -64 4 0 8 -9 8 -20 0 -11 5 -20 10 -20
6 0 10 -6 10 -12 1 -17 35 -58 49 -58 6 0 11 -9 11 -20 0 -31 -23 -24 -43 13
-21 38 -83 91 -97 82 -6 -4 -8 -11 -4 -16 3 -5 0 -17 -8 -26 -10 -13 -10 -17
0 -20 6 -3 12 -10 12 -17 0 -8 13 -29 30 -47 57 -65 29 -69 -31 -4 -45 49 -54
53 -63 29 -3 -9 4 -25 17 -38 19 -19 21 -26 12 -40 -15 -20 -41 -21 -49 -1 -6
18 -32 20 -42 3 -4 -6 3 -19 16 -30 17 -14 20 -22 12 -30 -8 -8 -18 -6 -36 6
-15 9 -27 14 -27 11 -1 -3 -3 -9 -4 -15 -1 -5 -3 -15 -4 -22 0 -6 -4 -8 -8 -5
-3 4 -12 2 -20 -5 -11 -9 -11 -14 2 -29 15 -16 15 -18 -4 -24 -27 -8 -27 -32
0 -40 22 -7 18 -17 -9 -21 -9 -2 -20 2 -24 9 -4 6 -10 8 -15 4 -4 -5 -1 -12 7
-17 12 -7 11 -12 -4 -29 -16 -18 -17 -25 -8 -46 6 -14 18 -25 27 -25 8 0 15
-3 15 -7 0 -5 -17 -8 -37 -8 -45 0 -59 -29 -21 -44 29 -12 6 -13 -50 -2 -23 5
-45 5 -47 1 -3 -4 9 -10 25 -14 29 -5 41 -31 19 -38 -7 -2 -17 -19 -23 -37
-25 -77 -74 -62 -51 15 l13 43 -23 -15 c-13 -8 -26 -22 -29 -30 -3 -8 -19 -14
-36 -14 -28 0 -70 -29 -81 -56 -2 -5 -22 -21 -45 -37 -50 -34 -123 -38 -139
-8 -6 10 -18 33 -28 51 -10 17 -25 63 -33 100 -12 60 -12 77 1 137 8 37 26 90
40 117 14 27 25 55 25 63 0 18 54 17 70 -2 7 -8 21 -15 32 -15 34 0 84 -27
121 -65 24 -25 41 -35 54 -31 23 7 59 -43 68 -96 4 -21 10 -38 14 -38 11 0 38
52 45 87 4 17 17 42 29 56 33 37 47 65 41 81 -3 8 3 19 14 25 14 8 18 17 15
32 -4 14 0 25 11 31 11 6 14 16 10 34 -5 18 -2 24 10 24 9 0 16 -4 16 -10 0
-5 7 -10 16 -10 12 0 14 5 9 18 -17 39 -28 92 -22 99 5 4 17 2 27 -5 11 -7 22
-12 25 -12 2 0 2 27 -2 60 -6 65 3 76 39 43 25 -23 34 -9 19 32 -16 46 -8 57
36 49 l36 -7 -16 24 c-32 44 -10 84 24 43 20 -25 29 4 17 59 -10 51 -5 68 14
49 7 -7 18 -12 26 -12 12 0 13 12 8 62 -4 35 -9 64 -11 66 -8 9 -84 11 -90 2
-3 -5 -13 -6 -23 -2 -9 5 -37 18 -61 30 -34 17 -47 19 -64 10 -18 -9 -24 -7
-43 17 -12 15 -26 25 -32 21 -16 -10 -56 54 -56 89 0 17 8 47 17 67 21 44 40
48 188 47 61 -1 123 4 144 11 21 7 54 10 74 7 21 -2 52 2 71 9 22 9 36 11 40
4 8 -13 83 -10 92 4 4 6 8 26 8 44 0 40 11 41 33 2 10 -16 22 -30 27 -30 12 0
60 -52 60 -65 0 -5 12 -21 25 -34 14 -13 25 -31 25 -40 0 -9 14 -29 32 -46 30
-30 30 -30 23 -5 -3 14 -15 36 -24 50 -18 24 -17 26 7 65 31 49 38 56 82 77
80 39 144 31 200 -27 32 -33 34 -39 34 -109 1 -64 -2 -78 -21 -98 -13 -13 -23
-29 -23 -35 0 -14 -59 -49 -106 -62 -29 -8 -39 -7 -51 4 -8 8 -18 15 -23 15
-4 0 -13 15 -19 33 -9 24 -14 28 -20 18 -9 -15 4 -67 20 -77 5 -3 9 -16 9 -29
0 -13 4 -25 9 -27 5 -1 21 -25 35 -53 88 -162 98 -175 124 -152 27 25 91 21
125 -6 59 -49 89 -222 53 -309 -24 -57 -20 -86 26 -178 23 -47 46 -95 52 -107
10 -24 34 -28 71 -14 23 10 56 -1 84 -26 11 -10 26 -23 34 -30 22 -17 11 -231
-13 -286 -14 -32 -16 -44 -7 -59 14 -22 21 -23 37 -3 7 8 24 15 37 15 14 0 39
10 55 22 l30 21 -6 131 c-3 72 -6 136 -6 142 0 7 -9 14 -20 17 -21 5 -25 24
-21 103 3 43 -13 64 -32 45 -17 -17 -52 -13 -72 9 -10 11 -24 20 -31 20 -21 0
-47 70 -45 119 2 55 25 99 55 111 13 5 33 21 45 36 19 24 24 26 48 15 19 -9
28 -9 33 -1 4 6 14 8 23 4 15 -5 17 5 17 102 0 60 5 128 10 152 7 29 7 56 0
82 -12 43 -16 47 -61 60 -26 8 -35 5 -55 -15 -29 -29 -37 -30 -53 -11 -6 7
-25 16 -41 19 -33 7 -60 41 -61 78 -1 31 19 160 33 219 6 25 10 56 9 68 0 16
6 26 19 29 10 3 26 15 34 28 14 22 14 25 -13 52 -36 35 -96 144 -110 200 -16
58 0 121 45 180 44 59 61 73 91 73 27 0 73 -27 73 -43 0 -6 7 -18 16 -28 26
-29 46 -155 34 -212 -5 -26 -10 -63 -10 -82 0 -26 -8 -40 -36 -64 -55 -44 -42
-61 44 -59 37 1 73 -1 79 -5 15 -10 28 11 42 67 20 80 98 216 125 216 5 0 19
10 31 23 103 103 240 230 258 238 12 5 33 16 47 24 32 19 40 19 40 0z m-1272
-72 c41 -58 48 -190 14 -265 -11 -27 -25 -48 -30 -48 -5 0 -23 22 -41 50 -32
50 -32 50 -25 142 5 72 11 99 28 120 27 34 30 34 54 1z m1269 -25 c-3 -8 -6
-5 -6 6 -1 11 2 17 5 13 3 -3 4 -12 1 -19z m-10 -90 c-3 -8 -6 -5 -6 6 -1 11
2 17 5 13 3 -3 4 -12 1 -19z m0 -105 c-3 -10 -5 -4 -5 12 0 17 2 24 5 18 2 -7
2 -21 0 -30z m-13 -100 c-9 -65 -14 -67 -14 -5 0 30 4 52 11 52 7 0 8 -16 3
-47z m-27 -170 c-3 -10 -5 -4 -5 12 0 17 2 24 5 18 2 -7 2 -21 0 -30z m129
-115 c13 -24 18 -27 30 -17 8 6 17 10 19 7 11 -11 21 -96 14 -116 -9 -23 -39
-31 -39 -11 0 23 -29 -12 -32 -38 -2 -15 -9 -28 -15 -31 -10 -3 -13 20 -13 92
0 57 -4 96 -10 96 -5 0 -10 -8 -11 -17 -1 -10 -5 -2 -10 17 -11 47 -6 59 26
53 15 -4 32 -17 41 -35z m-217 -542 c-9 -8 -10 -7 -5 7 3 10 7 28 7 40 2 16 3
14 6 -7 3 -16 -1 -34 -8 -40z m-1602 12 c-3 -8 -6 -5 -6 6 -1 11 2 17 5 13 3
-3 4 -12 1 -19z m977 -55 c-7 -20 -16 -28 -34 -28 -35 0 -39 31 -6 46 14 7 26
17 26 23 0 6 5 5 12 -2 8 -8 9 -20 2 -39z m-1044 -25 c0 -5 -7 -8 -15 -8 -8 0
-15 7 -15 15 0 8 -7 15 -15 15 -15 0 -20 12 -9 23 7 7 54 -33 54 -45z m1651
-31 c-13 -13 -15 41 -3 70 5 13 8 8 10 -21 2 -21 -1 -43 -7 -49z m-2416 -57
c0 -52 -17 -82 -36 -63 -13 13 -18 103 -6 127 8 17 10 17 25 2 11 -11 17 -33
17 -66z m195 29 c0 -18 -19 -38 -21 -22 0 4 -2 15 -4 24 -1 9 4 16 11 16 8 0
14 -8 14 -18z m487 -71 c-3 -8 -6 -5 -6 6 -1 11 2 17 5 13 3 -3 4 -12 1 -19z
m145 7 c0 -5 -5 -11 -11 -13 -6 -2 -11 4 -11 13 0 9 5 15 11 13 6 -2 11 -8 11
-13z m32 -29 c-3 -9 -10 -16 -15 -16 -14 0 -11 28 4 33 16 6 19 3 11 -17z
m122 -112 c57 -58 104 -110 104 -116 0 -14 -45 27 -123 111 -21 23 -40 41 -43
41 -2 0 -12 8 -22 18 -19 19 -35 52 -26 52 3 0 52 -48 110 -106z m-219 70 c-3
-3 -12 -4 -19 -1 -8 3 -5 6 6 6 11 1 17 -2 13 -5z m63 -2 c0 -11 -22 -32 -32
-32 -5 0 -4 9 2 20 11 20 30 28 30 12z m-110 -32 c0 -5 -4 -10 -9 -10 -6 0
-13 5 -16 10 -3 6 1 10 9 10 9 0 16 -4 16 -10z m281 -141 c38 -37 69 -70 69
-73 0 -17 -24 -1 -80 52 -33 31 -76 70 -95 85 -19 16 -35 35 -35 43 0 8 -6 11
-15 8 -16 -7 -18 -3 -9 19 6 15 26 -1 165 -134z m-311 121 c0 -5 -8 -10 -17
-10 -15 0 -16 2 -3 10 19 12 20 12 20 0z m60 -10 c0 -5 -7 -10 -15 -10 -8 0
-15 5 -15 10 0 6 7 10 15 10 8 0 15 -4 15 -10z m30 -36 c0 -8 -2 -14 -4 -14
-2 0 -12 -3 -21 -6 -14 -6 -14 -3 -4 19 12 27 29 27 29 1z m128 -121 c62 -60
112 -112 112 -117 0 -5 -8 -2 -17 8 -10 9 -28 24 -39 34 -120 97 -174 149
-174 167 0 8 1 15 3 15 1 0 53 -48 115 -107z m-228 77 c0 -5 -4 -10 -10 -10
-5 0 -10 5 -10 10 0 6 5 10 10 10 6 0 10 -4 10 -10z m-55 -30 c3 -5 -1 -10 -9
-10 -9 0 -16 5 -16 10 0 6 4 10 9 10 6 0 13 -4 16 -10z m125 -15 c27 -20 30
-25 14 -25 -18 1 -64 32 -64 44 0 12 17 5 50 -19z m370 -26 c0 -6 -4 -7 -10
-4 -5 3 -10 11 -10 16 0 6 5 7 10 4 6 -3 10 -11 10 -16z m-453 5 c-3 -3 -12
-4 -19 -1 -8 3 -5 6 6 6 11 1 17 -2 13 -5z m603 -11 c21 -18 26 -33 11 -33 -5
0 -16 11 -25 25 -19 29 -14 32 14 8z m-645 -13 c3 -5 -1 -10 -9 -10 -9 0 -16
5 -16 10 0 6 4 10 9 10 6 0 13 -4 16 -10z m183 -9 c3 -8 -1 -12 -9 -9 -7 2
-15 10 -17 17 -3 8 1 12 9 9 7 -2 15 -10 17 -17z m339 3 c-3 -3 -12 -4 -19 -1
-8 3 -5 6 6 6 11 1 17 -2 13 -5z m-293 -39 c15 -14 22 -25 17 -25 -11 0 -51
36 -51 45 0 9 7 5 34 -20z m711 -7 l16 -33 -21 24 c-11 13 -20 27 -20 32 0 18
10 8 25 -23z m-898 16 c-3 -3 -12 -4 -19 -1 -8 3 -5 6 6 6 11 1 17 -2 13 -5z
m80 0 c-3 -3 -12 -4 -19 -1 -8 3 -5 6 6 6 11 1 17 -2 13 -5z m353 -4 c0 -5 -4
-10 -10 -10 -5 0 -10 5 -10 10 0 6 5 10 10 10 6 0 10 -4 10 -10z m220 -26 c0
-8 -4 -12 -10 -9 -5 3 -10 10 -10 16 0 5 5 9 10 9 6 0 10 -7 10 -16z m-693 0
c-3 -3 -12 -4 -19 -1 -8 3 -5 6 6 6 11 1 17 -2 13 -5z m533 -36 c11 -12 20
-26 20 -31 0 -11 -50 34 -50 46 0 12 8 8 30 -15z m-573 6 c-3 -3 -12 -4 -19
-1 -8 3 -5 6 6 6 11 1 17 -2 13 -5z m330 0 c-3 -3 -12 -4 -19 -1 -8 3 -5 6 6
6 11 1 17 -2 13 -5z m143 -34 c0 -5 -4 -10 -9 -10 -6 0 -13 5 -16 10 -3 6 1
10 9 10 9 0 16 -4 16 -10z m564 -37 c15 -25 24 -48 21 -51 -3 -3 -6 -3 -8 -1
-11 17 -47 88 -47 93 0 15 10 3 34 -41z m-507 -29 c-9 -9 -28 6 -21 18 4 6 10
6 17 -1 6 -6 8 -13 4 -17z m133 6 c0 -5 -7 -7 -15 -4 -8 4 -15 8 -15 10 0 2 7
4 15 4 8 0 15 -4 15 -10z m270 -26 c12 -19 20 -37 17 -40 -6 -6 -47 50 -47 65
0 19 7 12 30 -25z m-1153 0 c-3 -3 -12 -4 -19 -1 -8 3 -5 6 6 6 11 1 17 -2 13
-5z m913 2 c0 -11 -19 -15 -25 -6 -3 5 1 10 9 10 9 0 16 -2 16 -4z m343 -51
c14 -25 23 -45 19 -45 -9 0 -52 67 -52 80 0 19 8 10 33 -35z m724 -22 c-3 -10
-5 -2 -5 17 0 19 2 27 5 18 2 -10 2 -26 0 -35z m-1017 7 c0 -5 -4 -10 -9 -10
-6 0 -13 5 -16 10 -3 6 1 10 9 10 9 0 16 -4 16 -10z m238 -11 c17 -27 5 -40
-14 -15 -8 11 -14 23 -14 28 0 15 15 8 28 -13z m112 11 c0 -5 -2 -10 -4 -10
-3 0 -8 5 -11 10 -3 6 -1 10 4 10 6 0 11 -4 11 -10z m-1063 -26 c-3 -3 -12 -4
-19 -1 -8 3 -5 6 6 6 11 1 17 -2 13 -5z m620 0 c-3 -3 -12 -4 -19 -1 -8 3 -5
6 6 6 11 1 17 -2 13 -5z m-967 -28 c0 -7 -7 -19 -15 -26 -19 -16 -20 -40 -1
-40 8 0 16 -7 20 -15 3 -8 15 -15 27 -15 18 0 19 -3 9 -14 -14 -18 -37 -11
-45 15 -15 47 -49 6 -61 -74 -4 -23 -11 -48 -17 -54 -5 -7 -7 -24 -5 -38 3
-16 1 -25 -7 -25 -7 0 -18 -6 -24 -13 -8 -11 -7 -18 7 -31 10 -9 22 -13 25
-10 4 4 12 2 19 -3 7 -6 28 -14 46 -18 18 -4 29 -11 26 -17 -8 -12 -84 -4 -93
11 -4 6 -15 3 -29 -7 -25 -19 -35 -76 -14 -78 6 -1 19 -2 27 -3 15 -1 21 -32
9 -44 -10 -10 -34 4 -34 20 0 13 -3 13 -15 3 -21 -17 -19 -66 3 -74 9 -3 31
-14 47 -24 17 -10 38 -17 49 -14 13 3 17 1 14 -9 -3 -8 -23 -15 -51 -17 -45
-3 -47 -2 -53 26 -7 32 -31 39 -40 10 -3 -10 -10 -18 -15 -18 -5 0 -9 -17 -9
-37 0 -20 -6 -44 -14 -52 -7 -9 -18 -43 -24 -76 -6 -33 -17 -90 -23 -127 -9
-46 -17 -68 -27 -68 -11 0 -13 12 -9 53 11 109 37 220 80 337 13 36 30 107 37
158 8 50 17 92 21 92 4 0 10 41 14 90 6 79 10 93 29 106 24 15 35 33 60 97 11
26 21 37 35 37 12 0 21 -6 21 -14z m195 -6 c3 -5 1 -10 -4 -10 -6 0 -11 5 -11
10 0 6 2 10 4 10 3 0 8 -4 11 -10z m1122 -12 c-3 -8 -6 -5 -6 6 -1 11 2 17 5
13 3 -3 4 -12 1 -19z m106 -49 c5 -4 7 -15 5 -25 -4 -14 -10 -8 -26 26 -12 25
-22 52 -22 60 0 8 8 -1 17 -20 10 -19 21 -38 26 -41z m-2165 41 c32 0 44 -18
57 -81 7 -35 21 -86 31 -112 14 -41 15 -54 4 -90 -37 -124 -59 -163 -100 -173
-47 -12 -75 -7 -114 20 -41 28 -75 32 -211 28 -87 -3 -290 25 -330 46 -16 9
-42 15 -56 14 -28 -2 -55 21 -61 53 -2 12 -13 21 -27 23 -29 5 -83 -17 -75
-30 4 -5 -4 -8 -17 -6 -21 3 -22 7 -20 73 3 81 15 112 37 94 8 -6 14 -8 14 -3
1 23 20 -24 20 -48 0 -47 50 -31 74 22 3 8 15 30 26 48 11 18 22 47 25 65 4
17 9 35 13 39 4 4 33 3 65 -1 32 -4 60 -5 62 -1 7 11 307 18 340 8 51 -16 102
-20 110 -9 3 6 18 11 33 11 15 0 34 5 42 10 8 5 21 8 28 5 8 -3 21 -5 30 -5z
m1932 -10 c0 -5 -5 -10 -11 -10 -5 0 -7 5 -4 10 3 6 8 10 11 10 2 0 4 -4 4
-10z m870 -31 c0 -16 -4 -28 -9 -25 -8 5 -3 56 5 56 2 0 4 -14 4 -31z m-2393
3 c31 -20 123 -195 110 -209 -4 -3 -1 -13 5 -21 10 -11 8 -17 -9 -30 -11 -10
-28 -32 -37 -49 -9 -18 -20 -33 -25 -33 -4 0 -13 -11 -19 -24 -15 -33 -56 -59
-81 -51 -35 11 -78 65 -105 133 -27 66 -27 68 -12 131 26 111 115 190 173 153z
m1693 -18 c0 -8 5 -14 10 -14 6 0 10 -10 10 -22 0 -20 -2 -19 -20 10 -22 35
-26 57 -10 47 6 -3 10 -13 10 -21z m-1216 -44 c-13 -13 -73 -17 -73 -5 0 5 15
8 34 6 23 -1 35 2 35 10 0 7 3 9 7 6 4 -4 2 -12 -3 -17z m1116 0 c0 -5 -4 -10
-10 -10 -5 0 -10 5 -10 10 0 6 5 10 10 10 6 0 10 -4 10 -10z m240 -15 c0 -8
-4 -15 -10 -15 -5 0 -10 7 -10 15 0 8 5 15 10 15 6 0 10 -7 10 -15z m876 -10
c91 -3 162 -9 170 -16 8 -6 30 -8 58 -4 32 5 46 4 46 -4 0 -6 -8 -14 -17 -17
-10 -3 -25 -10 -33 -15 -8 -5 -34 -18 -57 -29 -24 -11 -43 -24 -43 -28 0 -4
-13 -13 -29 -20 -16 -7 -39 -21 -52 -32 -75 -61 -96 -80 -143 -129 -28 -30
-60 -64 -71 -75 -11 -11 -38 -48 -60 -82 -68 -105 -66 -102 -61 -79 3 11 8 66
11 123 3 57 13 133 20 170 8 37 15 77 15 90 0 12 9 48 20 80 20 56 44 87 61
76 5 -3 79 -7 165 -9z m-2171 -15 c-3 -5 -17 -10 -31 -10 -13 0 -24 5 -24 10
0 6 14 10 31 10 17 0 28 -4 24 -10z m600 0 c-3 -5 -10 -10 -16 -10 -5 0 -9 5
-9 10 0 6 7 10 16 10 8 0 12 -4 9 -10z m613 -17 c19 -41 14 -52 -8 -18 -21 32
-25 45 -12 45 4 0 13 -12 20 -27z m1300 20 c-10 -2 -28 -2 -40 0 -13 2 -5 4
17 4 22 1 32 -1 23 -4z m-1238 -29 c0 -8 -4 -12 -10 -9 -5 3 -10 10 -10 16 0
5 5 9 10 9 6 0 10 -7 10 -16z m-1206 -9 c-4 -8 -10 -12 -15 -9 -5 3 -9 0 -9
-6 0 -6 -5 -8 -10 -5 -8 5 -7 11 1 21 15 19 40 18 33 -1z m576 5 c0 -5 -4 -10
-10 -10 -5 0 -10 5 -10 10 0 6 5 10 10 10 6 0 10 -4 10 -10z m-877 -27 c-7 -2
-19 -2 -25 0 -7 3 -2 5 12 5 14 0 19 -2 13 -5z m400 0 c-7 -2 -21 -2 -30 0
-10 3 -4 5 12 5 17 0 24 -2 18 -5z m1127 -9 c0 -8 -4 -12 -10 -9 -5 3 -10 10
-10 16 0 5 5 9 10 9 6 0 10 -7 10 -16z m-547 -38 c12 4 17 1 17 -11 0 -12 -5
-15 -22 -10 -25 7 -48 32 -48 49 0 6 8 1 18 -12 12 -15 24 -21 35 -16z m-508
14 c-3 -5 -12 -7 -20 -3 -21 7 -19 13 6 13 11 0 18 -4 14 -10z m-631 -15 c3
-8 1 -15 -4 -15 -6 0 -10 7 -10 15 0 8 2 15 4 15 2 0 6 -7 10 -15z m991 -35
c12 0 94 -54 95 -62 0 -15 -38 -8 -44 7 -3 8 -17 15 -31 15 -14 0 -25 3 -25 8
0 8 -56 43 -85 53 -17 6 -17 7 -2 8 9 1 17 6 17 12 0 5 15 -1 33 -15 19 -15
37 -26 42 -26z m649 34 c3 -8 2 -12 -4 -9 -6 3 -10 10 -10 16 0 14 7 11 14 -7z
m-924 -14 c0 -5 -4 -10 -9 -10 -6 0 -13 5 -16 10 -3 6 1 10 9 10 9 0 16 -4 16
-10z m810 -20 c0 -5 -5 -10 -11 -10 -5 0 -7 5 -4 10 3 6 8 10 11 10 2 0 4 -4
4 -10z m-340 -10 c0 -5 -2 -10 -4 -10 -3 0 -8 5 -11 10 -3 6 -1 10 4 10 6 0
11 -4 11 -10z m203 -62 c-2 -5 -13 2 -23 14 -10 13 -16 27 -13 32 3 5 14 -2
24 -15 9 -13 15 -27 12 -31z m-1068 -33 c0 -17 -41 -17 -55 0 -12 15 -10 16
21 13 19 -2 34 -7 34 -13z m1095 5 c0 -5 -2 -10 -4 -10 -3 0 -8 5 -11 10 -3 6
-1 10 4 10 6 0 11 -4 11 -10z m-1235 -50 c4 -6 -8 -10 -29 -10 -20 0 -36 5
-36 10 0 6 13 10 29 10 17 0 33 -4 36 -10z m563 -41 c2 -5 16 -9 30 -9 39 0
73 -11 66 -21 -9 -15 -84 -11 -90 5 -3 7 -24 17 -47 20 -31 5 -38 9 -27 17 17
10 63 3 68 -12z m747 11 c3 -5 1 -10 -4 -10 -6 0 -11 5 -11 10 0 6 2 10 4 10
3 0 8 -4 11 -10z m-1205 -7 c-1 -30 -103 -56 -147 -38 -14 6 -7 11 32 25 52
19 115 26 115 13z m717 1 c-3 -3 -12 -4 -19 -1 -8 3 -5 6 6 6 11 1 17 -2 13
-5z m668 -24 c3 -5 2 -10 -4 -10 -5 0 -13 5 -16 10 -3 6 -2 10 4 10 5 0 13 -4
16 -10z m-1150 -18 c-19 -12 -53 -19 -95 -21 -71 -2 -76 9 -8 16 24 3 50 9 58
14 8 5 29 9 45 9 l30 0 -30 -18z m185 -32 l23 -20 -63 0 -62 0 23 20 c31 25
50 25 79 0z m-1607 -61 c26 -15 40 -25 84 -68 40 -37 117 -76 133 -66 6 3 10
1 10 -6 0 -7 2 -10 5 -7 10 9 80 -19 82 -34 2 -7 -1 -19 -6 -27 -8 -12 -12
-12 -25 -2 -9 8 -23 10 -33 6 -10 -5 -28 -7 -39 -6 -12 1 -24 -5 -27 -13 -10
-26 -67 -49 -109 -43 -23 3 -41 1 -46 -6 -4 -7 -18 -12 -32 -13 -39 -1 -90
-16 -90 -25 0 -5 -10 -9 -22 -10 -13 0 -17 -3 -11 -6 10 -3 10 -8 -1 -19 -8
-8 -19 -14 -24 -14 -12 0 -22 74 -22 161 0 75 19 109 60 109 15 0 20 7 20 25
0 26 40 75 60 75 6 0 21 -5 33 -11z m2884 -31 c-3 -8 -6 -5 -6 6 -1 11 2 17 5
13 3 -3 4 -12 1 -19z m918 -18 c3 -5 2 -10 -4 -10 -5 0 -13 5 -16 10 -3 6 -2
10 4 10 5 0 13 -4 16 -10z m-2851 -77 c8 -19 -8 -38 -23 -29 -16 10 -13 46 3
46 8 0 17 -8 20 -17z m931 7 c7 -12 -12 -12 -40 0 -18 8 -17 9 7 9 15 1 30 -3
33 -9z m2068 3 c-7 -2 -21 -2 -30 0 -10 3 -4 5 12 5 17 0 24 -2 18 -5z m-2945
-26 c2 -10 -3 -17 -12 -17 -10 0 -16 9 -16 21 0 24 23 21 28 -4z m42 -3 c0 -2
-7 -4 -15 -4 -8 0 -15 4 -15 10 0 5 7 7 15 4 8 -4 15 -8 15 -10z m904 1 c3 -8
13 -15 23 -15 10 0 40 -11 67 -24 l49 -24 -41 -3 c-22 -3 -38 -1 -36 3 3 5 -7
13 -23 18 -15 6 -46 18 -67 27 -37 17 -38 18 -15 24 36 10 36 10 43 -6z
m-2094 -255 c0 -6 13 -39 29 -74 17 -36 37 -103 46 -157 9 -52 21 -123 26
-159 6 -36 9 -117 7 -180 -6 -166 -38 -230 -115 -230 -34 0 -41 5 -74 50 -34
48 -54 92 -77 176 -24 86 -21 154 12 274 13 47 27 107 30 134 3 27 14 61 24
75 9 14 19 37 22 51 6 31 70 67 70 40z m1448 -17 c-21 -2 -57 -2 -80 0 -24 2
-7 4 37 4 44 0 63 -2 43 -4z m155 0 c-13 -2 -35 -2 -50 0 -16 2 -5 4 22 4 28
0 40 -2 28 -4z m1558 -120 c-9 -15 -10 -11 -11 19 0 54 14 83 18 36 2 -21 -1
-46 -7 -55z m-74 -10 c-3 -10 -5 -4 -5 12 0 17 2 24 5 18 2 -7 2 -21 0 -30z
m0 -165 c-3 -8 -6 -5 -6 6 -1 11 2 17 5 13 3 -3 4 -12 1 -19z m-552 -486 c20
-6 25 -10 14 -14 -13 -5 -757 -4 -769 1 -3 2 9 9 25 17 25 12 85 14 365 10
184 -3 348 -9 365 -14z m-759 -31 c-3 -4 -71 -11 -152 -15 -80 -4 -157 -12
-171 -17 -13 -5 -59 -8 -101 -8 l-77 2 65 9 c36 5 74 14 85 19 28 12 72 16
223 17 73 1 131 -2 128 -7z m870 -12 c3 -6 0 -15 -7 -20 -11 -7 -10 -9 4 -9
10 0 17 -8 17 -20 0 -16 -7 -20 -32 -20 -49 0 -64 14 -33 30 14 7 25 22 25 32
0 20 15 24 26 7z m-88 -43 c12 -13 -15 -24 -83 -36 -56 -10 -79 -10 -87 -2
-20 20 10 42 53 40 22 -1 42 2 46 6 7 7 62 1 71 -8z m152 -6 c0 -5 -4 -10 -10
-10 -5 0 -10 5 -10 10 0 6 5 10 10 10 6 0 10 -4 10 -10z m-350 -15 c0 -10 -74
-35 -106 -35 -32 0 -45 16 -27 33 7 8 133 10 133 2z m-192 -11 c65 -10 50 -20
-38 -27 -43 -4 -88 -12 -98 -18 -15 -9 -30 -9 -63 -1 -24 6 -48 7 -54 3 -5 -5
-53 -10 -105 -11 -52 0 -126 -3 -165 -6 -181 -11 -196 -11 -193 4 5 26 97 40
263 42 183 2 244 6 252 13 7 8 148 8 201 1z m-794 -53 c16 -3 31 -12 34 -19 7
-22 -268 -4 -292 19 -11 10 212 10 258 0z m-299 -31 c0 -12 -14 -15 -68 -15
-98 -1 -99 16 -2 28 49 7 70 3 70 -13z m-195 -20 c0 -5 -8 -10 -17 -10 -15 0
-16 2 -3 10 19 12 20 12 20 0z m-234 -29 c-8 -13 -36 -15 -36 -3 0 4 5 13 12
20 14 14 34 0 24 -17z m191 23 c-3 -3 -12 -4 -19 -1 -8 3 -5 6 6 6 11 1 17 -2
13 -5z m2033 -130 c0 -2 -7 -4 -15 -4 -8 0 -15 4 -15 10 0 5 7 7 15 4 8 -4 15
-8 15 -10z m457 0 c3 -8 -1 -22 -9 -31 -13 -12 -19 -13 -37 -1 -27 17 -27 26
2 38 32 13 37 12 44 -6z"/>
<path d="M840 3030 c-51 -27 -60 -38 -60 -66 0 -19 6 -26 31 -31 17 -3 33 -13
36 -22 10 -28 24 -40 39 -34 8 3 14 11 14 19 0 16 26 19 35 4 8 -13 78 -13 92
1 8 8 -9 30 -59 80 -39 38 -75 69 -82 68 -6 0 -27 -9 -46 -19z"/>
<path d="M1275 3006 c-9 -20 -13 -41 -10 -47 4 -5 -1 -12 -9 -15 -9 -3 -16
-15 -16 -25 0 -25 35 -25 52 0 13 18 70 52 85 51 14 -2 13 24 0 42 -7 9 -30
19 -50 23 -36 7 -38 6 -52 -29z"/>
<path d="M2905 3650 c-3 -5 -1 -10 4 -10 6 0 11 5 11 10 0 6 -2 10 -4 10 -3 0
-8 -4 -11 -10z"/>
<path d="M2613 3368 c16 -38 33 -46 40 -19 5 21 -5 33 -35 44 -16 6 -17 3 -5
-25z"/>
<path d="M2955 3388 c-4 -9 9 -46 31 -85 20 -37 44 -81 52 -98 9 -16 24 -36
34 -43 10 -7 18 -20 18 -28 0 -8 5 -14 10 -14 6 0 10 9 10 20 0 11 -3 20 -7
20 -5 0 -13 10 -19 23 -27 55 -98 184 -110 201 -12 17 -14 17 -19 4z"/>
<path d="M4122 2795 c0 -16 2 -22 5 -12 2 9 2 23 0 30 -3 6 -5 -1 -5 -18z"/>
<path d="M2188 2483 c7 -3 16 -2 19 1 4 3 -2 6 -13 5 -11 0 -14 -3 -6 -6z"/>
<path d="M3255 1670 c-3 -5 1 -10 9 -10 9 0 16 5 16 10 0 6 -4 10 -9 10 -6 0
-13 -4 -16 -10z"/>
<path d="M3290 1634 c0 -8 5 -12 10 -9 6 3 10 10 10 16 0 5 -4 9 -10 9 -5 0
-10 -7 -10 -16z"/>
<path d="M3115 1622 c-11 -11 -4 -22 15 -22 11 0 20 6 20 13 0 13 -25 19 -35
9z"/>
<path d="M3244 1594 c3 -9 6 -18 6 -20 0 -2 6 -4 13 -4 7 0 21 -14 31 -31 10
-17 25 -29 34 -27 19 4 28 28 10 28 -16 0 -58 43 -58 59 0 6 -9 11 -21 11 -15
0 -19 -4 -15 -16z"/>
<path d="M3330 1600 c0 -5 5 -10 10 -10 6 0 10 5 10 10 0 6 -4 10 -10 10 -5 0
-10 -4 -10 -10z"/>
<path d="M3170 1575 c0 -8 7 -15 15 -15 9 0 12 6 9 15 -4 8 -10 15 -15 15 -5
0 -9 -7 -9 -15z"/>
<path d="M3245 1540 c3 -5 11 -10 16 -10 6 0 7 5 4 10 -3 6 -11 10 -16 10 -6
0 -7 -4 -4 -10z"/>
<path d="M3350 1499 c0 -6 -9 -8 -20 -4 -15 5 -20 2 -20 -11 0 -13 6 -15 30
-10 28 5 35 -1 31 -26 0 -4 6 -5 14 -2 20 8 19 19 -2 44 -19 22 -33 26 -33 9z"/>
<path d="M3220 1445 c0 -10 7 -15 18 -13 21 4 19 22 -2 26 -10 2 -16 -3 -16
-13z"/>
<path d="M3410 1435 c0 -8 5 -15 10 -15 6 0 10 7 10 15 0 8 -4 15 -10 15 -5 0
-10 -7 -10 -15z"/>
<path d="M3280 1416 c0 -9 5 -16 10 -16 6 0 10 4 10 9 0 6 -4 13 -10 16 -5 3
-10 -1 -10 -9z"/>
<path d="M3436 1411 c-4 -7 -5 -15 -2 -18 9 -9 19 4 14 18 -4 11 -6 11 -12 0z"/>
<path d="M3307 1394 c-10 -11 3 -24 24 -24 23 0 25 15 3 24 -19 7 -19 7 -27 0z"/>
<path d="M2918 1383 c7 -3 16 -2 19 1 4 3 -2 6 -13 5 -11 0 -14 -3 -6 -6z"/>
<path d="M3580 1380 c0 -5 5 -10 10 -10 6 0 10 5 10 10 0 6 -4 10 -10 10 -5 0
-10 -4 -10 -10z"/>
<path d="M3317 1332 c-9 -2 -15 -8 -12 -13 8 -12 45 -12 45 0 0 13 -12 18 -33
13z"/>
<path d="M3620 1330 c0 -5 5 -10 11 -10 5 0 7 5 4 10 -3 6 -8 10 -11 10 -2 0
-4 -4 -4 -10z"/>
<path d="M3250 1296 c0 -2 9 -6 20 -9 11 -3 20 -1 20 4 0 5 -9 9 -20 9 -11 0
-20 -2 -20 -4z"/>
<path d="M3700 1294 c0 -16 24 -64 33 -64 14 0 7 31 -13 52 -11 12 -20 17 -20
12z"/>
<path d="M3298 1263 c6 -2 18 -2 25 0 6 3 1 5 -13 5 -14 0 -19 -2 -12 -5z"/>
<path d="M3355 1240 c-3 -5 1 -10 10 -10 9 0 13 5 10 10 -3 6 -8 10 -10 10 -2
0 -7 -4 -10 -10z"/>
<path d="M4761 1145 c-57 -8 -126 -22 -155 -30 -109 -35 -266 -129 -266 -160
0 -22 15 -18 47 11 32 30 143 84 222 109 113 36 306 56 376 38 27 -7 69 -13
92 -13 36 0 43 3 43 19 0 17 -10 20 -72 25 -40 3 -98 7 -128 10 -30 2 -102 -2
-159 -9z"/>
<path d="M3023 1143 c9 -2 23 -2 30 0 6 3 -1 5 -18 5 -16 0 -22 -2 -12 -5z"/>
<path d="M3260 1120 c0 -5 7 -10 16 -10 8 0 12 5 9 10 -3 6 -10 10 -16 10 -5
0 -9 -4 -9 -10z"/>
<path d="M2855 1030 c-14 -6 0 -9 45 -9 45 -1 60 2 50 9 -18 12 -68 12 -95 0z"/>
<path d="M1988 1023 c6 -2 18 -2 25 0 6 3 1 5 -13 5 -14 0 -19 -2 -12 -5z"/>
<path d="M2048 1023 c6 -2 18 -2 25 0 6 3 1 5 -13 5 -14 0 -19 -2 -12 -5z"/>
<path d="M2507 1019 c-9 -5 -22 -7 -29 -3 -7 4 -8 3 -4 -4 5 -9 -10 -12 -51
-12 -32 -1 -76 -7 -98 -15 -22 -8 -55 -15 -72 -15 -18 0 -33 -4 -33 -10 0 -5
-17 -12 -37 -15 -66 -10 -136 -26 -194 -45 -31 -11 -65 -17 -76 -14 -11 3 -25
-1 -32 -10 -8 -9 -24 -16 -37 -16 -13 0 -24 -4 -24 -10 0 -5 -11 -12 -25 -16
-18 -4 -25 -13 -25 -29 0 -24 24 -40 43 -28 7 4 23 9 37 10 38 2 101 18 140
35 19 8 60 21 90 28 30 7 58 17 61 22 3 5 26 11 51 14 25 2 59 11 74 19 16 8
43 15 60 15 17 0 37 7 44 15 7 8 28 15 46 15 21 0 42 8 54 20 12 12 41 23 72
28 62 9 78 32 21 32 -21 0 -46 -5 -56 -11z"/>
<path d="M1810 987 c-10 -21 -11 -30 -2 -39 17 -17 24 -5 20 34 l-4 33 -14
-28z"/>
<path d="M1862 1003 c-6 -2 -10 -9 -6 -14 6 -11 61 -11 89 0 16 7 14 9 -14 14
-37 8 -50 8 -69 0z"/>
<path d="M2135 999 c-16 -6 -14 -8 13 -8 33 -1 41 4 20 12 -7 2 -22 1 -33 -4z"/>
<path d="M3530 996 c0 -9 5 -16 10 -16 6 0 10 4 10 9 0 6 -4 13 -10 16 -5 3
-10 -1 -10 -9z"/>
<path d="M3555 971 c-3 -5 -1 -12 5 -16 5 -3 10 1 10 9 0 18 -6 21 -15 7z"/>
<path d="M2750 959 c-36 -5 -94 -13 -130 -18 -36 -5 -96 -17 -135 -26 -38 -8
-92 -20 -120 -26 -27 -6 -58 -15 -68 -21 -10 -5 -39 -13 -65 -18 -85 -16 -147
-32 -156 -41 -6 -5 -24 -9 -40 -9 -17 0 -44 -7 -60 -15 -34 -18 -72 -28 -108
-28 -16 0 -28 -4 -28 -8 0 -5 -7 -9 -15 -9 -8 0 -15 -7 -15 -16 0 -14 7 -16
43 -11 23 4 60 11 82 16 22 6 63 15 90 21 28 5 57 13 65 17 33 14 301 85 420
112 41 9 80 19 85 22 6 3 39 6 75 8 36 1 91 6 122 10 31 4 110 4 177 0 66 -4
132 -4 148 0 l28 8 -25 6 c-116 27 -280 39 -370 26z"/>
<path d="M3580 926 c0 -9 7 -16 16 -16 17 0 14 22 -4 28 -7 2 -12 -3 -12 -12z"/>
<path d="M4313 933 c-18 -7 -16 -23 2 -23 8 0 15 7 15 15 0 8 -1 15 -2 14 -2
0 -9 -3 -15 -6z"/>
<path d="M3620 896 c0 -9 5 -16 10 -16 6 0 10 4 10 9 0 6 -4 13 -10 16 -5 3
-10 -1 -10 -9z"/>
<path d="M4280 889 c0 -5 5 -7 10 -4 6 3 10 8 10 11 0 2 -4 4 -10 4 -5 0 -10
-5 -10 -11z"/>
<path d="M2765 704 c-136 -17 -335 -66 -485 -119 -112 -39 -224 -76 -255 -85
-46 -13 -97 -31 -127 -46 -14 -8 -40 -14 -56 -14 -17 0 -33 -4 -36 -9 -3 -4
-32 -14 -65 -20 -53 -11 -80 -29 -64 -45 19 -19 172 7 413 69 30 8 84 22 120
31 36 8 126 31 200 49 290 72 416 89 630 89 137 0 185 -4 223 -17 26 -9 63
-17 81 -17 19 0 39 -7 46 -15 7 -8 25 -15 40 -15 15 0 33 -7 40 -15 7 -8 20
-15 30 -15 22 0 132 -57 142 -73 6 -9 8 -9 8 0 0 19 -90 101 -150 137 -81 47
-120 64 -191 81 -35 9 -73 20 -84 25 -41 19 -190 40 -274 39 -47 -1 -131 -7
-186 -15z"/>
<path d="M4701 665 c-94 -17 -149 -38 -231 -86 -61 -35 -160 -120 -160 -137 0
-10 79 -2 86 9 3 5 18 9 34 9 16 0 47 6 67 14 69 26 226 46 386 48 113 2 157
0 157 -8 0 -14 23 -24 56 -24 23 0 24 2 24 84 0 78 -1 84 -22 90 -50 15 -322
16 -397 1z"/>
<path d="M1800 40 c-8 -5 -10 -10 -5 -10 6 0 17 5 25 10 8 5 11 10 5 10 -5 0
-17 -5 -25 -10z"/>
<path d="M1807 24 c-15 -15 -6 -24 23 -24 17 0 30 5 30 10 0 6 -4 10 -9 10 -5
0 -16 2 -23 5 -8 3 -17 2 -21 -1z"/>
<path d="M1888 23 c-33 -9 -18 -23 23 -23 28 0 39 4 37 13 -5 13 -32 18 -60
10z"/>
</g>
</svg>
